<svg xmlns="http://www.w3.org/2000/svg" xmlns:xlink="http://www.w3.org/1999/xlink" width="400" zoomAndPan="magnify" viewBox="0 0 300 74.999997" height="100" preserveAspectRatio="xMidYMid meet" version="1.0"><defs><clipPath id="feca261c68"><path d="M 2 18.296875 L 39 18.296875 L 39 57.496094 L 2 57.496094 Z M 2 18.296875 " clip-rule="nonzero"/></clipPath></defs><g clip-path="url(#feca261c68)"><path fill="#ffffff" d="M 2.394531 57.460938 L 2.394531 56.75 C 3.152344 56.5 3.894531 56.003906 4.621094 55.261719 C 5.351562 54.511719 6.136719 53.097656 6.980469 51.023438 L 17.730469 24.386719 C 18.058594 23.511719 18.019531 22.65625 17.621094 21.8125 L 17.132812 20.671875 L 21.21875 18.8125 L 34.65625 51.074219 C 35.488281 53.117188 36.246094 54.511719 36.917969 55.261719 C 37.59375 56.003906 38.222656 56.5 38.808594 56.75 L 38.808594 57.460938 L 30.34375 57.460938 L 30.34375 56.75 C 31.175781 56.5 31.519531 56.003906 31.371094 55.261719 C 31.226562 54.511719 30.71875 53.117188 29.84375 51.074219 L 26.519531 43.046875 L 11.121094 43.046875 L 7.90625 51.023438 C 6.523438 54.484375 6.738281 56.390625 8.558594 56.75 L 8.558594 57.460938 Z M 11.457031 42.234375 L 26.195312 42.234375 L 18.707031 24.273438 Z M 11.457031 42.234375 " fill-opacity="1" fill-rule="nonzero"/></g><path fill="#ffffff" d="M 49.171875 57.460938 L 49.171875 56.75 C 50.003906 56.5 50.574219 55.957031 50.882812 55.125 C 51.199219 54.28125 51.359375 52.75 51.359375 50.523438 L 51.359375 20.125 L 48.683594 20.125 C 46.238281 20.125 44.382812 20.507812 43.109375 21.273438 C 41.832031 22.03125 40.722656 23.394531 39.785156 25.359375 L 39.183594 25.25 L 39.507812 19.25 L 67.621094 19.25 L 67.945312 25.25 L 67.347656 25.359375 C 66.4375 23.394531 65.347656 22.03125 64.070312 21.273438 C 62.796875 20.507812 60.921875 20.125 58.445312 20.125 L 55.882812 20.125 L 55.882812 50.523438 C 55.882812 52.75 56.035156 54.28125 56.347656 55.125 C 56.652344 55.957031 57.226562 56.5 58.070312 56.75 L 58.070312 57.460938 Z M 49.171875 57.460938 " fill-opacity="1" fill-rule="nonzero"/><path fill="#ffffff" d="M 71.664062 57.460938 L 71.664062 56.75 C 72.496094 56.5 73.066406 55.957031 73.375 55.125 C 73.683594 54.28125 73.839844 52.75 73.839844 50.523438 L 73.839844 26.1875 C 73.839844 23.929688 73.683594 22.390625 73.375 21.574219 C 73.066406 20.75 72.496094 20.210938 71.664062 19.960938 L 71.664062 19.25 L 80.5 19.25 L 80.5 19.960938 C 79.667969 20.210938 79.089844 20.75 78.777344 21.574219 C 78.464844 22.390625 78.3125 23.929688 78.3125 26.1875 L 78.3125 54.136719 C 78.3125 55.769531 79.132812 56.585938 80.777344 56.585938 L 87.277344 56.585938 C 89.890625 56.585938 91.902344 56.195312 93.300781 55.410156 C 94.699219 54.628906 95.875 53.21875 96.824219 51.1875 L 97.425781 51.296875 L 97.039062 57.460938 Z M 71.664062 57.460938 " fill-opacity="1" fill-rule="nonzero"/><path fill="#ffffff" d="M 97.589844 57.460938 L 97.589844 56.75 C 98.347656 56.5 99.089844 56.003906 99.816406 55.261719 C 100.546875 54.511719 101.332031 53.097656 102.175781 51.023438 L 112.925781 24.386719 C 113.253906 23.511719 113.214844 22.65625 112.816406 21.8125 L 112.328125 20.671875 L 116.414062 18.8125 L 129.851562 51.074219 C 130.683594 53.117188 131.441406 54.511719 132.113281 55.261719 C 132.789062 56.003906 133.417969 56.5 134.003906 56.75 L 134.003906 57.460938 L 125.539062 57.460938 L 125.539062 56.75 C 126.371094 56.5 126.714844 56.003906 126.566406 55.261719 C 126.421875 54.511719 125.914062 53.117188 125.039062 51.074219 L 121.714844 43.046875 L 106.316406 43.046875 L 103.101562 51.023438 C 101.71875 54.484375 101.933594 56.390625 103.753906 56.75 L 103.753906 57.460938 Z M 106.652344 42.234375 L 121.390625 42.234375 L 113.902344 24.273438 Z M 110.140625 16.460938 L 115.601562 12.046875 C 116.21875 11.542969 116.679688 11.21875 116.988281 11.074219 C 117.296875 10.921875 117.617188 10.847656 117.953125 10.847656 C 118.535156 10.847656 119.144531 11.03125 119.777344 11.398438 C 120.410156 11.757812 120.726562 12.121094 120.726562 12.484375 C 120.726562 12.78125 120.628906 13.042969 120.425781 13.273438 C 120.226562 13.507812 119.765625 13.734375 119.039062 13.949219 L 110.363281 16.796875 Z M 110.140625 16.460938 " fill-opacity="1" fill-rule="nonzero"/><path fill="#ffffff" d="M 165.101562 57.898438 L 139.402344 24.4375 L 139.402344 48.347656 C 139.402344 50.421875 139.546875 52.023438 139.839844 53.148438 C 140.132812 54.273438 140.554688 55.105469 141.117188 55.636719 C 141.679688 56.160156 142.367188 56.53125 143.164062 56.75 L 143.164062 57.460938 L 136.339844 57.460938 L 136.339844 56.75 C 137.179688 56.5 137.757812 55.957031 138.066406 55.125 C 138.371094 54.28125 138.527344 52.75 138.527344 50.523438 L 138.527344 26.1875 C 138.527344 23.929688 138.328125 22.390625 137.929688 21.574219 C 137.527344 20.75 136.78125 20.210938 135.691406 19.960938 L 135.691406 19.25 L 141.039062 19.25 L 164.890625 50.148438 L 164.890625 28.359375 C 164.890625 26.285156 164.742188 24.679688 164.453125 23.535156 C 164.160156 22.386719 163.742188 21.558594 163.191406 21.046875 C 162.648438 20.542969 161.960938 20.179688 161.128906 19.960938 L 161.128906 19.25 L 168.003906 19.25 L 168.003906 19.960938 C 167.167969 20.210938 166.59375 20.75 166.277344 21.574219 C 165.96875 22.390625 165.816406 23.929688 165.816406 26.1875 L 165.816406 57.898438 Z M 165.101562 57.898438 " fill-opacity="1" fill-rule="nonzero"/><path fill="#ffffff" d="M 181.046875 57.460938 L 181.046875 56.75 C 181.878906 56.5 182.449219 55.957031 182.757812 55.125 C 183.074219 54.28125 183.234375 52.75 183.234375 50.523438 L 183.234375 20.125 L 180.558594 20.125 C 178.113281 20.125 176.257812 20.507812 174.984375 21.273438 C 173.707031 22.03125 172.597656 23.394531 171.660156 25.359375 L 171.058594 25.25 L 171.382812 19.25 L 199.496094 19.25 L 199.820312 25.25 L 199.222656 25.359375 C 198.3125 23.394531 197.222656 22.03125 195.945312 21.273438 C 194.671875 20.507812 192.796875 20.125 190.320312 20.125 L 187.757812 20.125 L 187.757812 50.523438 C 187.757812 52.75 187.910156 54.28125 188.222656 55.125 C 188.527344 55.957031 189.101562 56.5 189.945312 56.75 L 189.945312 57.460938 Z M 181.046875 57.460938 " fill-opacity="1" fill-rule="nonzero"/><path fill="#ffffff" d="M 203.539062 57.460938 L 203.539062 56.75 C 204.371094 56.5 204.941406 55.957031 205.25 55.125 C 205.558594 54.28125 205.714844 52.75 205.714844 50.523438 L 205.714844 26.1875 C 205.714844 23.929688 205.558594 22.390625 205.25 21.574219 C 204.941406 20.75 204.371094 20.210938 203.539062 19.960938 L 203.539062 19.25 L 212.375 19.25 L 212.375 19.960938 C 211.542969 20.210938 210.964844 20.75 210.652344 21.574219 C 210.339844 22.390625 210.1875 23.929688 210.1875 26.1875 L 210.1875 50.523438 C 210.1875 52.75 210.339844 54.28125 210.652344 55.125 C 210.964844 55.957031 211.542969 56.5 212.375 56.75 L 212.375 57.460938 Z M 203.539062 57.460938 " fill-opacity="1" fill-rule="nonzero"/><path fill="#ffffff" d="M 238.574219 58.011719 C 234.390625 58.011719 230.761719 57.265625 227.6875 55.773438 C 224.609375 54.28125 222.226562 52.128906 220.535156 49.3125 C 218.84375 46.484375 218 43.09375 218 39.125 C 218 36.207031 218.523438 33.523438 219.574219 31.074219 C 220.628906 28.617188 222.136719 26.46875 224.085938 24.636719 C 226.035156 22.796875 228.347656 21.375 231.023438 20.375 C 233.699219 19.375 236.636719 18.875 239.835938 18.875 C 241.402344 18.875 242.992188 19.011719 244.609375 19.285156 C 246.226562 19.554688 247.703125 19.886719 249.046875 20.285156 C 250.398438 20.6875 251.417969 21.125 252.109375 21.597656 L 252.335938 28.097656 L 251.785156 28.199219 C 250.734375 25.722656 248.980469 23.722656 246.523438 22.199219 C 244.0625 20.671875 241.214844 19.910156 237.972656 19.910156 C 235.097656 19.910156 232.492188 20.546875 230.160156 21.824219 C 227.835938 23.09375 225.988281 24.984375 224.625 27.5 C 223.265625 30.007812 222.585938 33.117188 222.585938 36.824219 C 222.585938 39.375 222.953125 41.847656 223.699219 44.25 C 224.449219 46.648438 225.566406 48.808594 227.0625 50.722656 C 228.550781 52.632812 230.390625 54.140625 232.574219 55.25 C 234.753906 56.359375 237.265625 56.910156 240.109375 56.910156 C 243.050781 56.910156 245.625 56.148438 247.824219 54.625 C 250.03125 53.097656 251.660156 50.859375 252.710938 47.910156 L 253.324219 47.960938 L 252.449219 55.0625 C 251.171875 55.753906 249.304688 56.421875 246.847656 57.0625 C 244.390625 57.691406 241.628906 58.011719 238.574219 58.011719 Z M 238.574219 58.011719 " fill-opacity="1" fill-rule="nonzero"/><path fill="#ffffff" d="M 277.882812 58.011719 C 275.546875 58.011719 273.234375 57.617188 270.945312 56.835938 C 268.652344 56.054688 266.5625 54.855469 264.671875 53.234375 C 262.777344 51.609375 261.265625 49.5625 260.132812 47.085938 C 259.007812 44.609375 258.445312 41.683594 258.445312 38.296875 C 258.445312 34.546875 259.261719 31.210938 260.894531 28.285156 C 262.535156 25.355469 264.8125 23.042969 267.71875 21.347656 C 270.636719 19.65625 274.023438 18.8125 277.882812 18.8125 C 280.171875 18.8125 282.464844 19.210938 284.757812 20.011719 C 287.046875 20.8125 289.132812 22.023438 291.007812 23.648438 C 292.882812 25.265625 294.382812 27.3125 295.507812 29.785156 C 296.640625 32.261719 297.207031 35.171875 297.207031 38.523438 C 297.207031 41.90625 296.640625 44.820312 295.507812 47.261719 C 294.382812 49.695312 292.875 51.710938 290.984375 53.3125 C 289.089844 54.910156 287.007812 56.09375 284.734375 56.859375 C 282.457031 57.625 280.171875 58.011719 277.882812 58.011719 Z M 262.808594 35.136719 C 262.921875 37.859375 263.425781 40.507812 264.320312 43.074219 C 265.210938 45.640625 266.425781 47.945312 267.96875 49.984375 C 269.519531 52.019531 271.332031 53.636719 273.40625 54.835938 C 275.484375 56.035156 277.734375 56.636719 280.171875 56.636719 C 283.085938 56.636719 285.507812 56.003906 287.433594 54.734375 C 289.359375 53.460938 290.78125 51.722656 291.707031 49.523438 C 292.640625 47.316406 293.050781 44.847656 292.945312 42.125 C 292.835938 39.28125 292.335938 36.546875 291.445312 33.910156 C 290.550781 31.269531 289.339844 28.910156 287.808594 26.835938 C 286.28125 24.761719 284.484375 23.117188 282.40625 21.898438 C 280.332031 20.683594 278.078125 20.074219 275.644531 20.074219 C 272.875 20.074219 270.519531 20.710938 268.570312 21.984375 C 266.625 23.253906 265.152344 25.015625 264.144531 27.273438 C 263.144531 29.53125 262.699219 32.15625 262.808594 35.136719 Z M 262.808594 35.136719 " fill-opacity="1" fill-rule="nonzero"/></svg>
